<svg xmlns="http://www.w3.org/2000/svg" viewBox="0 0 1200 630" width="1200" height="630">
  <defs>
    <linearGradient id="bg" x1="0" y1="0" x2="1" y2="1">
      <stop offset="0%" stop-color="#0a0f0a"/>
      <stop offset="100%" stop-color="#111a11"/>
    </linearGradient>
    <filter id="glow" x="-50%" y="-50%" width="200%" height="200%">
      <feGaussianBlur stdDeviation="5" result="blur"/>
      <feMerge><feMergeNode in="blur"/><feMergeNode in="SourceGraphic"/></feMerge>
    </filter>
  </defs>
  <rect width="1200" height="630" fill="url(#bg)"/>

  <g opacity="0.07" font-family="monospace" font-size="16" fill="#39ff14">
    <text x="40" y="60">V A C 1 L 4 D 4</text>
    <text x="40" y="600">B R O M 4 5</text>
    <text x="1080" y="80">0 1 1</text>
    <text x="1080" y="590">V A C</text>
  </g>

  <!-- Phone icon left -->
  <g transform="translate(260 315)">
    <g transform="scale(1.9)">
      <g transform="rotate(-30)">
        <path d="M -56 -18 Q -56 -34, -40 -34 L -28 -34 Q -18 -34, -14 -22 L -8 -4 Q -6 2, -10 6 L -18 12 Q -14 32, 0 48 L 6 54 Q 12 60, 18 56 L 30 48 Q 38 42, 44 48 L 56 60 Q 66 70, 56 82 L 48 90 Q 38 100, 24 96 Q -12 88, -42 58 Q -72 28, -76 -8 Q -78 -18, -70 -22 Z" fill="#39ff14" filter="url(#glow)"/>
      </g>
      <path d="M 20 -60 Q 42 -56, 50 -30" fill="none" stroke="#39ff14" stroke-width="8" stroke-linecap="round"/>
      <circle cx="38" cy="-72" r="6" fill="#39ff14"/>
      <circle cx="58" cy="-60" r="6" fill="#39ff14"/>
    </g>
  </g>

  <!-- Text right -->
  <g transform="translate(510 0)">
    <text x="0" y="260" font-family="'JetBrains Mono', monospace" font-size="120" font-weight="800" fill="#39ff14" filter="url(#glow)" letter-spacing="-3">Vacilada</text>
    <text x="0" y="335" font-family="'Inter', sans-serif" font-size="32" font-weight="700" fill="#ffffff">Bromas telefónicas con IA</text>
    <text x="0" y="385" font-family="'Inter', sans-serif" font-size="24" fill="#9aa59a">Tú describes. La IA llama.</text>
    <text x="0" y="420" font-family="'Inter', sans-serif" font-size="24" fill="#9aa59a">Te mueres de risa.</text>
    <text x="0" y="515" font-family="'JetBrains Mono', monospace" font-size="28" font-weight="700" fill="#39ff14">→ vacilada.com</text>
    <text x="0" y="560" font-family="'Inter', sans-serif" font-size="22" fill="#9aa59a">Hecho en México 🇲🇽</text>
  </g>
</svg>
